<svg viewBox="0 0 40 40" fill="none" xmlns="http://www.w3.org/2000/svg">
<g clip-path="url(#clip0)">
<path d="M20.0156 -0.09375C8.97857 -0.09375 0 8.88482 0 19.9219C0 30.9589 8.97857 39.9375 20.0156 39.9375C31.0527 39.9375 40.0312 30.9589 40.0312 19.9219C40.0312 8.88482 31.0527 -0.09375 20.0156 -0.09375Z" fill="#EFEFEF"/>
<path d="M31.3639 18.6609H21.2766V8.57336C21.2766 7.87747 20.7116 7.3125 20.0155 7.3125C19.3196 7.3125 18.7547 7.87747 18.7547 8.57336V18.6609H8.66711C7.97122 18.6609 7.40625 19.2259 7.40625 19.9218C7.40625 20.6179 7.97122 21.1828 8.66711 21.1828H18.7547V31.2702C18.7547 31.9663 19.3196 32.5312 20.0155 32.5312C20.7116 32.5312 21.2766 31.9663 21.2766 31.2702V21.1828H31.3639C32.06 21.1828 32.625 20.6179 32.625 19.9218C32.625 19.2259 32.06 18.6609 31.3639 18.6609V18.6609Z" fill="#5A5A67"/>
</g>
<defs>
<clipPath id="clip0">
<rect width="40" height="40" fill="white"/>
</clipPath>
</defs>
</svg>
