<svg width="7" height="5" viewBox="0 0 7 5" fill="none" xmlns="http://www.w3.org/2000/svg">
<path d="M5.89913 2.104C6.04846 2.09467 6.16513 2.132 6.24913 2.216C6.34246 2.3 6.38913 2.40267 6.38913 2.524C6.38913 2.636 6.34246 2.73867 6.24913 2.832C6.16513 2.916 6.04846 2.95333 5.89913 2.944L4.23313 2.888L5.11513 4.302C5.17113 4.39533 5.19913 4.484 5.19913 4.568C5.19913 4.68 5.15246 4.778 5.05913 4.862C4.97513 4.93667 4.87713 4.974 4.76513 4.974C4.60646 4.974 4.48046 4.89 4.38713 4.722L3.60313 3.238L2.81913 4.736C2.72579 4.904 2.59979 4.988 2.44113 4.988C2.32913 4.988 2.22646 4.946 2.13313 4.862C2.03979 4.778 1.99313 4.68 1.99313 4.568C1.99313 4.484 2.02113 4.4 2.07713 4.316L2.98713 2.888L1.29313 2.944C1.15313 2.95333 1.04113 2.916 0.957125 2.832C0.873125 2.73867 0.831125 2.636 0.831125 2.524C0.831125 2.40267 0.868458 2.3 0.943125 2.216C1.02713 2.132 1.14379 2.09467 1.29313 2.104L2.98713 2.16L2.07713 0.746C2.02113 0.662 1.99313 0.573333 1.99313 0.48C1.99313 0.368 2.03979 0.27 2.13313 0.186C2.22646 0.101999 2.32913 0.0599995 2.44113 0.0599995C2.59979 0.0599995 2.72579 0.143999 2.81913 0.312L3.60313 1.81L4.38713 0.325999C4.48046 0.148666 4.61113 0.0599995 4.77913 0.0599995C4.89113 0.0599995 4.98913 0.101999 5.07313 0.186C5.15713 0.260666 5.19913 0.354 5.19913 0.465999C5.19913 0.549999 5.17113 0.643333 5.11513 0.746L4.23313 2.16L5.89913 2.104Z" fill="#D80027"/>
</svg>
